<svg width="205" height="151" viewBox="0 0 205 151" fill="none" xmlns="http://www.w3.org/2000/svg">
<path d="M159.452 113.195L182.152 151H136.753L159.452 113.195Z" fill="#64FA75"/>
<path d="M159.452 37.6952L182.152 75.4999H136.753L159.452 37.6952Z" fill="#3BC14A"/>
<path d="M45.4948 0L68.1944 37.8047H22.7952L45.4948 0Z" fill="#46E558"/>
<path d="M113.868 37.8047L136.568 75.6095H91.1686L113.868 37.8047Z" fill="#296ACC"/>
<path d="M68.2839 37.6952L90.9835 75.4999H45.5842L68.2839 37.6952Z" fill="#96BEFA"/>
<path d="M136.663 75.4999L159.363 113.305H113.964L136.663 75.4999Z" fill="#46E558"/>
<path d="M45.4948 75.3904L68.1944 113.195H22.7952L45.4948 75.3904Z" fill="#64A0FA"/>
<path d="M113.868 113.195L136.568 151H91.1686L113.868 113.195Z" fill="#296ACC"/>
<path d="M22.6996 37.6952L45.3993 75.4999H0L22.6996 37.6952Z" fill="#64A0FA"/>
<path d="M91.079 75.4999L113.779 113.305H68.3794L91.079 75.4999Z" fill="#64A0FA"/>
<path d="M91.079 0L113.779 37.8047H68.3794L91.079 0Z" fill="#3BC14A"/>
<path d="M182.248 75.3904L204.947 113.195H159.548L182.248 75.3904Z" fill="#3BC14A"/>
<path d="M182.25 151L159.55 113.195H204.949L182.25 151Z" fill="#64FA75"/>
<path d="M68.286 37.8047L45.5863 4.19617e-05L90.9856 4.19617e-05L68.286 37.8047Z" fill="#278031"/>
<path d="M136.659 75.6096L113.96 37.8049L159.359 37.8049L136.659 75.6096Z" fill="#46E658"/>
<path d="M45.4968 75.4999L22.7972 37.6952L68.1964 37.6952L45.4968 75.4999Z" fill="#46E558"/>
<path d="M113.87 113.305L91.1706 75.5001H136.57L113.87 113.305Z" fill="#64FA75"/>
<path d="M22.7002 113.195L0.000522614 75.3904H45.3998L22.7002 113.195Z" fill="#46E558"/>
<path d="M91.075 151L68.3754 113.195H113.775L91.075 151Z" fill="#64A0FA"/>
<path d="M68.286 113.195L45.5863 75.3904H90.9856L68.286 113.195Z" fill="#96BEFA"/>
<path d="M136.659 151L113.96 113.195H159.359L136.659 151Z" fill="#46E558"/>
<path d="M91.075 75.4999L68.3754 37.6952L113.775 37.6952L91.075 75.4999Z" fill="#3BC14A"/>
<path d="M159.454 113.195L136.755 75.3904H182.154L159.454 113.195Z" fill="#3BC14A"/>
</svg>
