<svg width="113" height="84" viewBox="0 0 113 84" fill="none" xmlns="http://www.w3.org/2000/svg">
<path d="M87.9146 62.4109L100.43 83.2548H75.399L87.9146 62.4109Z" fill="#64FA75"/>
<path d="M87.9146 20.7835L100.43 41.6274H75.399L87.9146 20.7835Z" fill="#3BC14A"/>
<path d="M25.0837 0L37.5993 20.8439H12.5681L25.0837 0Z" fill="#46E558"/>
<path d="M62.7816 20.8438L75.2971 41.6877H50.266L62.7816 20.8438Z" fill="#296ACC"/>
<path d="M37.6486 20.7835L50.1642 41.6274H25.1331L37.6486 20.7835Z" fill="#96BEFA"/>
<path d="M75.3497 41.6274L87.8653 62.4712H62.8341L75.3497 41.6274Z" fill="#46E558"/>
<path d="M25.0837 41.5671L37.5993 62.4109H12.5681L25.0837 41.5671Z" fill="#64A0FA"/>
<path d="M62.7816 62.4109L75.2971 83.2548H50.266L62.7816 62.4109Z" fill="#296ACC"/>
<path d="M12.5156 20.7835L25.0312 41.6274H0L12.5156 20.7835Z" fill="#64A0FA"/>
<path d="M50.2167 41.6274L62.7323 62.4712H37.7012L50.2167 41.6274Z" fill="#64A0FA"/>
<path d="M50.2167 0L62.7323 20.8439H37.7012L50.2167 0Z" fill="#3BC14A"/>
<path d="M100.484 41.5671L112.999 62.4109H87.9682L100.484 41.5671Z" fill="#3BC14A"/>
<path d="M100.484 83.2548L87.9688 62.4109H113L100.484 83.2548Z" fill="#64FA75"/>
<path d="M37.6503 20.8438L25.1347 -1.14441e-05L50.1659 -1.14441e-05L37.6503 20.8438Z" fill="#278031"/>
<path d="M75.3482 41.6877L62.8326 20.8438L87.8638 20.8438L75.3482 41.6877Z" fill="#46E658"/>
<path d="M25.0854 41.6274L12.5698 20.7835L37.601 20.7835L25.0854 41.6274Z" fill="#46E558"/>
<path d="M62.7833 62.4712L50.2677 41.6274H75.2989L62.7833 62.4712Z" fill="#64FA75"/>
<path d="M12.5162 62.4109L0.000583649 41.5671H25.0317L12.5162 62.4109Z" fill="#46E558"/>
<path d="M50.2152 83.2548L37.6996 62.4109H62.7308L50.2152 83.2548Z" fill="#64A0FA"/>
<path d="M37.6503 62.4109L25.1347 41.5671H50.1659L37.6503 62.4109Z" fill="#96BEFA"/>
<path d="M75.3482 83.2548L62.8326 62.4109H87.8638L75.3482 83.2548Z" fill="#46E558"/>
<path d="M50.2152 41.6274L37.6996 20.7835L62.7308 20.7835L50.2152 41.6274Z" fill="#3BC14A"/>
<path d="M87.9163 62.4109L75.4007 41.5671H100.432L87.9163 62.4109Z" fill="#3BC14A"/>
</svg>
