<svg width="36" height="36" viewBox="0 0 36 36" fill="none" xmlns="http://www.w3.org/2000/svg">
<path fill-rule="evenodd" clip-rule="evenodd" d="M5.74939 19.5001C5.74939 25.6216 10.4503 30.7498 16.9994 30.7498C23.5485 30.7498 28.2494 25.6216 28.2494 19.5001C28.2494 16.75 27.3236 13.486 25.6094 10.1751C23.1664 5.45615 21.0022 3.24976 17.6244 3.24976H16.3744C12.9634 3.24976 10.2369 6.00146 8.35663 10.2432C6.53984 14.3417 5.74939 16.9814 5.74939 19.5001ZM25.7495 19.5C25.7495 24.287 22.117 28.2497 16.9995 28.2497C11.882 28.2497 8.24947 24.287 8.24947 19.5C8.24947 17.4202 8.95651 15.0591 10.6422 11.2562C12.1646 7.82184 14.2178 5.74967 16.3745 5.74967H17.6245C19.7519 5.74967 21.3432 7.37204 23.3894 11.3244C24.9318 14.3035 25.7495 17.1864 25.7495 19.5ZM17 24.1872C14.2385 24.1872 12 21.9486 12 19.1872C12 16.3138 14.2775 13.2497 17 13.2497C19.7225 13.2497 22 16.3138 22 19.1872C22 21.9486 19.7614 24.1872 17 24.1872ZM19.4993 19.1873C19.4993 20.5681 18.38 21.6873 16.9993 21.6873C15.6186 21.6873 14.4993 20.5681 14.4993 19.1873C14.4993 17.561 15.8455 15.7498 16.9993 15.7498C18.1531 15.7498 19.4993 17.561 19.4993 19.1873Z" fill="#999999"/>
</svg>
