<svg width="36" height="36" viewBox="0 0 36 36" fill="none" xmlns="http://www.w3.org/2000/svg">
<path fill-rule="evenodd" clip-rule="evenodd" d="M5.74933 19.5001C5.74933 25.6216 10.4502 30.7498 16.9993 30.7498C23.5484 30.7498 28.2493 25.6216 28.2493 19.5001C28.2493 16.75 27.3235 13.486 25.6094 10.1751C23.1663 5.45615 21.0022 3.24976 17.6243 3.24976H16.3743C12.9633 3.24976 10.2368 6.00146 8.35657 10.2432C6.53978 14.3417 5.74933 16.9814 5.74933 19.5001ZM25.7494 19.5C25.7494 24.287 22.1169 28.2497 16.9994 28.2497C11.8819 28.2497 8.2494 24.287 8.2494 19.5C8.2494 17.4202 8.95645 15.0591 10.6422 11.2562C12.1646 7.82184 14.2177 5.74967 16.3744 5.74967H17.6244C19.7518 5.74967 21.3431 7.37204 23.3894 11.3244C24.9317 14.3035 25.7494 17.1864 25.7494 19.5ZM16.9999 24.1872C14.2385 24.1872 11.9999 21.9486 11.9999 19.1872C11.9999 16.3138 14.2774 13.2497 16.9999 13.2497C19.7224 13.2497 21.9999 16.3138 21.9999 19.1872C21.9999 21.9486 19.7613 24.1872 16.9999 24.1872ZM19.4992 19.1873C19.4992 20.5681 18.3799 21.6873 16.9992 21.6873C15.6185 21.6873 14.4992 20.5681 14.4992 19.1873C14.4992 17.561 15.8454 15.7498 16.9992 15.7498C18.153 15.7498 19.4992 17.561 19.4992 19.1873Z" fill="black"/>
</svg>
