<svg width="24" height="24" viewBox="0 0 24 24" fill="none" xmlns="http://www.w3.org/2000/svg">
<path fill-rule="evenodd" clip-rule="evenodd" d="M17.8333 10.3332C17.8333 6.95059 15.968 4.60282 13.5544 3.898C13.467 3.67188 13.3289 3.46167 13.1412 3.28528C12.4997 2.68258 11.5002 2.68258 10.8587 3.28528C10.6714 3.46128 10.5335 3.67096 10.446 3.89652C8.02942 4.59827 6.16663 6.94091 6.16663 10.3332C6.16663 12.5282 5.72411 13.7581 4.90492 14.6494C4.76798 14.7984 4.39697 15.1397 4.1456 15.3709L4.14554 15.371L4.14551 15.371L4.14545 15.371L4.14534 15.3711C4.02649 15.4805 3.93444 15.5651 3.9066 15.5932L3.66663 15.8365V18.6783H8.73994C8.91149 19.5634 9.3917 20.1555 10.2601 20.6854C11.3284 21.3373 12.6715 21.3373 13.7398 20.6854C14.5062 20.2177 15.0201 19.499 15.2286 18.6783H20.3333V15.8365L20.0933 15.5932C20.0681 15.5676 19.9798 15.4861 19.8643 15.3796L19.8641 15.3795L19.8641 15.3794L19.8641 15.3794C19.6135 15.1482 19.2352 14.7993 19.0961 14.6474C18.2764 13.7519 17.8333 12.5204 17.8333 10.3332ZM13.4472 18.6783H10.4821C10.5999 18.8973 10.8005 19.0627 11.1283 19.2627C11.6635 19.5893 12.3364 19.5893 12.8716 19.2627C13.1195 19.1115 13.3131 18.9114 13.4472 18.6783ZM17.8668 15.7728C18.0421 15.9643 18.418 16.3144 18.6666 16.5432V17.0117H5.33329V16.5436C5.58002 16.3175 5.95699 15.9676 6.13203 15.7772C7.24514 14.5661 7.83329 12.9314 7.83329 10.3332C7.83329 7.18316 9.77727 5.34356 12 5.34356C14.2164 5.34356 16.1666 7.19265 16.1666 10.3332C16.1666 12.9231 16.755 14.5582 17.8668 15.7728Z" fill="black"/>
</svg>
