<svg width="36" height="36" viewBox="0 0 36 36" fill="none" xmlns="http://www.w3.org/2000/svg">
<path fill-rule="evenodd" clip-rule="evenodd" d="M15.4987 6.75H20.4987C21.8795 6.75 22.9987 7.86929 22.9987 9.25V10.5001H27.9991C29.3799 10.5001 30.4991 11.6194 30.4991 13.0001V26.7501C30.4991 28.1308 29.3799 29.2501 27.9991 29.2501H7.99915C6.61843 29.2501 5.49915 28.1308 5.49915 26.7501V13.0001C5.49915 11.6194 6.61843 10.5001 7.99915 10.5001H12.9987V9.25C12.9987 7.86929 14.118 6.75 15.4987 6.75ZM7.99853 26.75V21.7501H16.7485V23.0001H19.2485V21.7501H27.9985V26.75H7.99853ZM19.2485 19.2501H27.9985V13L22.9987 13H12.9987L7.99853 13V19.2501H16.7485H19.2485ZM20.4997 9.24994V10.4999H15.4997V9.24994H20.4997Z" fill="black"/>
</svg>
