<svg width="1536" height="1536" viewBox="0 0 1536 1536" fill="none" xmlns="http://www.w3.org/2000/svg">
<g clip-path="url(#clip0)">
<path d="M263.824 804.456C270.992 805.736 277.072 809.512 282.064 815.784C287.056 822.056 289.552 829.16 289.552 837.096C289.552 843.88 287.76 850.024 284.176 855.528C280.72 860.904 275.664 865.192 269.008 868.392C262.352 871.464 254.608 873 245.776 873H192.4V739.56H243.28C252.368 739.56 260.176 741.096 266.704 744.168C273.232 747.24 278.16 751.4 281.488 756.648C284.816 761.768 286.48 767.528 286.48 773.928C286.48 781.608 284.432 788.008 280.336 793.128C276.24 798.248 270.736 802.024 263.824 804.456ZM214.288 795.624H241.36C248.528 795.624 254.096 794.024 258.064 790.824C262.16 787.496 264.208 782.76 264.208 776.616C264.208 770.6 262.16 765.928 258.064 762.6C254.096 759.144 248.528 757.416 241.36 757.416H214.288V795.624ZM243.856 855.144C251.28 855.144 257.104 853.352 261.328 849.768C265.552 846.184 267.664 841.192 267.664 834.792C267.664 828.264 265.424 823.08 260.944 819.24C256.464 815.4 250.512 813.48 243.088 813.48H214.288V855.144H243.856ZM409.146 767.208V873H387.258V860.52C383.802 864.872 379.258 868.328 373.626 870.888C368.122 873.32 362.234 874.536 355.962 874.536C347.642 874.536 340.154 872.808 333.498 869.352C326.97 865.896 321.786 860.776 317.946 853.992C314.234 847.208 312.378 839.016 312.378 829.416V767.208H334.074V826.152C334.074 835.624 336.442 842.92 341.178 848.04C345.914 853.032 352.378 855.528 360.57 855.528C368.762 855.528 375.226 853.032 379.962 848.04C384.826 842.92 387.258 835.624 387.258 826.152V767.208H409.146ZM430.729 819.624C430.729 809 432.905 799.592 437.257 791.4C441.737 783.208 447.753 776.872 455.305 772.392C462.985 767.784 471.497 765.48 480.841 765.48C487.753 765.48 494.537 767.016 501.193 770.088C507.977 773.032 513.353 777 517.321 781.992V730.92H539.401V873H517.321V857.064C513.737 862.184 508.745 866.408 502.345 869.736C496.073 873.064 488.841 874.728 480.649 874.728C471.433 874.728 462.985 872.424 455.305 867.816C447.753 863.08 441.737 856.552 437.257 848.232C432.905 839.784 430.729 830.248 430.729 819.624ZM517.321 820.008C517.321 812.712 515.785 806.376 512.713 801C509.769 795.624 505.865 791.528 501.001 788.712C496.137 785.896 490.889 784.488 485.257 784.488C479.625 784.488 474.377 785.896 469.513 788.712C464.649 791.4 460.681 795.432 457.609 800.808C454.665 806.056 453.193 812.328 453.193 819.624C453.193 826.92 454.665 833.32 457.609 838.824C460.681 844.328 464.649 848.552 469.513 851.496C474.505 854.312 479.753 855.72 485.257 855.72C490.889 855.72 496.137 854.312 501.001 851.496C505.865 848.68 509.769 844.584 512.713 839.208C515.785 833.704 517.321 827.304 517.321 820.008ZM610.774 765.48C618.966 765.48 626.198 767.144 632.47 770.472C638.87 773.672 643.862 777.704 647.446 782.568V767.208H669.526V874.728C669.526 884.456 667.478 893.096 663.382 900.648C659.286 908.328 653.334 914.344 645.526 918.696C637.846 923.048 628.63 925.224 617.878 925.224C603.542 925.224 591.638 921.832 582.166 915.048C572.694 908.392 567.318 899.304 566.038 887.784H587.734C589.398 893.288 592.918 897.704 598.294 901.032C603.798 904.488 610.326 906.216 617.878 906.216C626.71 906.216 633.814 903.528 639.19 898.152C644.694 892.776 647.446 884.968 647.446 874.728V857.064C643.734 862.056 638.678 866.28 632.278 869.736C626.006 873.064 618.838 874.728 610.774 874.728C601.558 874.728 593.11 872.424 585.43 867.816C577.878 863.08 571.862 856.552 567.382 848.232C563.03 839.784 560.854 830.248 560.854 819.624C560.854 809 563.03 799.592 567.382 791.4C571.862 783.208 577.878 776.872 585.43 772.392C593.11 767.784 601.558 765.48 610.774 765.48ZM647.446 820.008C647.446 812.712 645.91 806.376 642.838 801C639.894 795.624 635.99 791.528 631.126 788.712C626.262 785.896 621.014 784.488 615.382 784.488C609.75 784.488 604.502 785.896 599.638 788.712C594.774 791.4 590.806 795.432 587.734 800.808C584.79 806.056 583.318 812.328 583.318 819.624C583.318 826.92 584.79 833.32 587.734 838.824C590.806 844.328 594.774 848.552 599.638 851.496C604.63 854.312 609.878 855.72 615.382 855.72C621.014 855.72 626.262 854.312 631.126 851.496C635.99 848.68 639.894 844.584 642.838 839.208C645.91 833.704 647.446 827.304 647.446 820.008ZM795.235 817.512C795.235 821.48 794.979 825.064 794.467 828.264H713.635C714.275 836.712 717.411 843.496 723.043 848.616C728.675 853.736 735.587 856.296 743.779 856.296C755.555 856.296 763.875 851.368 768.739 841.512H792.355C789.155 851.24 783.331 859.24 774.883 865.512C766.563 871.656 756.195 874.728 743.779 874.728C733.667 874.728 724.579 872.488 716.515 868.008C708.579 863.4 702.307 857 697.699 848.808C693.219 840.488 690.979 830.888 690.979 820.008C690.979 809.128 693.155 799.592 697.507 791.4C701.987 783.08 708.195 776.68 716.131 772.2C724.195 767.72 733.411 765.48 743.779 765.48C753.763 765.48 762.659 767.656 770.467 772.008C778.275 776.36 784.355 782.504 788.707 790.44C793.059 798.248 795.235 807.272 795.235 817.512ZM772.387 810.6C772.259 802.536 769.379 796.072 763.747 791.208C758.115 786.344 751.139 783.912 742.819 783.912C735.267 783.912 728.803 786.344 723.427 791.208C718.051 795.944 714.851 802.408 713.827 810.6H772.387ZM842.311 785.064V843.624C842.311 847.592 843.207 850.472 844.999 852.264C846.919 853.928 850.119 854.76 854.599 854.76H868.039V873H850.759C840.903 873 833.351 870.696 828.103 866.088C822.855 861.48 820.231 853.992 820.231 843.624V785.064H807.751V767.208H820.231V740.904H842.311V767.208H868.039V785.064H842.311ZM1009.51 804.456C1016.68 805.736 1022.76 809.512 1027.75 815.784C1032.74 822.056 1035.24 829.16 1035.24 837.096C1035.24 843.88 1033.45 850.024 1029.86 855.528C1026.41 860.904 1021.35 865.192 1014.7 868.392C1008.04 871.464 1000.3 873 991.464 873H938.088V739.56H988.968C998.056 739.56 1005.86 741.096 1012.39 744.168C1018.92 747.24 1023.85 751.4 1027.18 756.648C1030.5 761.768 1032.17 767.528 1032.17 773.928C1032.17 781.608 1030.12 788.008 1026.02 793.128C1021.93 798.248 1016.42 802.024 1009.51 804.456ZM959.976 795.624H987.048C994.216 795.624 999.784 794.024 1003.75 790.824C1007.85 787.496 1009.9 782.76 1009.9 776.616C1009.9 770.6 1007.85 765.928 1003.75 762.6C999.784 759.144 994.216 757.416 987.048 757.416H959.976V795.624ZM989.544 855.144C996.968 855.144 1002.79 853.352 1007.02 849.768C1011.24 846.184 1013.35 841.192 1013.35 834.792C1013.35 828.264 1011.11 823.08 1006.63 819.24C1002.15 815.4 996.2 813.48 988.776 813.48H959.976V855.144H989.544ZM1080.91 730.92V873H1059.03V730.92H1080.91ZM1155.54 874.728C1145.55 874.728 1136.53 872.488 1128.47 868.008C1120.4 863.4 1114.07 857 1109.46 848.808C1104.85 840.488 1102.55 830.888 1102.55 820.008C1102.55 809.256 1104.91 799.72 1109.65 791.4C1114.39 783.08 1120.85 776.68 1129.04 772.2C1137.23 767.72 1146.39 765.48 1156.5 765.48C1166.61 765.48 1175.76 767.72 1183.95 772.2C1192.15 776.68 1198.61 783.08 1203.35 791.4C1208.08 799.72 1210.45 809.256 1210.45 820.008C1210.45 830.76 1208.02 840.296 1203.15 848.616C1198.29 856.936 1191.63 863.4 1183.19 868.008C1174.87 872.488 1165.65 874.728 1155.54 874.728ZM1155.54 855.72C1161.17 855.72 1166.42 854.376 1171.28 851.688C1176.27 849 1180.31 844.968 1183.38 839.592C1186.45 834.216 1187.99 827.688 1187.99 820.008C1187.99 812.328 1186.51 805.864 1183.57 800.616C1180.63 795.24 1176.72 791.208 1171.86 788.52C1166.99 785.832 1161.75 784.488 1156.11 784.488C1150.48 784.488 1145.23 785.832 1140.37 788.52C1135.63 791.208 1131.86 795.24 1129.04 800.616C1126.23 805.864 1124.82 812.328 1124.82 820.008C1124.82 831.4 1127.7 840.232 1133.46 846.504C1139.35 852.648 1146.71 855.72 1155.54 855.72ZM1224.79 820.008C1224.79 809.128 1226.97 799.592 1231.32 791.4C1235.8 783.08 1241.94 776.68 1249.75 772.2C1257.56 767.72 1266.52 765.48 1276.63 765.48C1289.43 765.48 1299.99 768.552 1308.31 774.696C1316.76 780.712 1322.46 789.352 1325.4 800.616H1301.78C1299.86 795.368 1296.79 791.272 1292.57 788.328C1288.34 785.384 1283.03 783.912 1276.63 783.912C1267.67 783.912 1260.5 787.112 1255.13 793.512C1249.88 799.784 1247.26 808.616 1247.26 820.008C1247.26 831.4 1249.88 840.296 1255.13 846.696C1260.5 853.096 1267.67 856.296 1276.63 856.296C1289.3 856.296 1297.69 850.728 1301.78 839.592H1325.4C1322.33 850.344 1316.57 858.92 1308.12 865.32C1299.67 871.592 1289.18 874.728 1276.63 874.728C1266.52 874.728 1257.56 872.488 1249.75 868.008C1241.94 863.4 1235.8 857 1231.32 848.808C1226.97 840.488 1224.79 830.888 1224.79 820.008ZM1389.07 820.2L1437.84 873H1408.27L1369.1 827.496V873H1347.21V730.92H1369.1V813.48L1407.5 767.208H1437.84L1389.07 820.2ZM1491.93 874.728C1483.61 874.728 1476.12 873.256 1469.46 870.312C1462.93 867.24 1457.75 863.144 1453.91 858.024C1450.07 852.776 1448.02 846.952 1447.77 840.552H1470.42C1470.81 845.032 1472.92 848.808 1476.76 851.88C1480.73 854.824 1485.65 856.296 1491.54 856.296C1497.69 856.296 1502.42 855.144 1505.75 852.84C1509.21 850.408 1510.93 847.336 1510.93 843.624C1510.93 839.656 1509.01 836.712 1505.17 834.792C1501.46 832.872 1495.51 830.76 1487.32 828.456C1479.38 826.28 1472.92 824.168 1467.93 822.12C1462.93 820.072 1458.58 816.936 1454.87 812.712C1451.29 808.488 1449.49 802.92 1449.49 796.008C1449.49 790.376 1451.16 785.256 1454.49 780.648C1457.81 775.912 1462.55 772.2 1468.69 769.512C1474.97 766.824 1482.13 765.48 1490.2 765.48C1502.23 765.48 1511.89 768.552 1519.19 774.696C1526.61 780.712 1530.58 788.968 1531.09 799.464H1509.21C1508.82 794.728 1506.9 790.952 1503.45 788.136C1499.99 785.32 1495.32 783.912 1489.43 783.912C1483.67 783.912 1479.25 785 1476.18 787.176C1473.11 789.352 1471.57 792.232 1471.57 795.816C1471.57 798.632 1472.6 801 1474.65 802.92C1476.69 804.84 1479.19 806.376 1482.13 807.528C1485.08 808.552 1489.43 809.896 1495.19 811.56C1502.87 813.608 1509.14 815.72 1514.01 817.896C1519 819.944 1523.29 823.016 1526.87 827.112C1530.45 831.208 1532.31 836.648 1532.44 843.432C1532.44 849.448 1530.77 854.824 1527.45 859.56C1524.12 864.296 1519.38 868.008 1513.24 870.696C1507.22 873.384 1500.12 874.728 1491.93 874.728Z" fill="#34D1C8"/>
<path fill-rule="evenodd" clip-rule="evenodd" d="M133 740H0V768.574H104.426V873H133V740Z" fill="#4AD6CD" fill-opacity="0.5"/>
<rect y="784.333" width="88.6667" height="88.6667" fill="#34D1C8"/>
</g>
<defs>
<clipPath id="clip0">
<rect width="1536" height="1536" fill="white"/>
</clipPath>
</defs>
</svg>
