<svg width="36" height="36" viewBox="0 0 36 36" fill="none" xmlns="http://www.w3.org/2000/svg">
<path fill-rule="evenodd" clip-rule="evenodd" d="M23.4777 11.7502L25.7807 16.3562L29.2502 18.6692V23.0002H27.7861C27.2713 21.5437 25.8822 20.5002 24.2495 20.5002C22.6167 20.5002 21.2277 21.5437 20.7129 23.0001H15.2862C14.7714 21.5437 13.3823 20.5002 11.7496 20.5002C10.1168 20.5002 8.72774 21.5437 8.21296 23.0002H6.75024V11.7502H23.4777ZM29.2502 25.5002H27.7861C27.2712 26.9567 25.8822 28.0002 24.2495 28.0002C22.6167 28.0002 21.2276 26.9566 20.7128 25.5001H15.2862C14.7715 26.9566 13.3824 28.0002 11.7496 28.0002C10.1168 28.0002 8.72781 26.9567 8.213 25.5002H6.75024C5.36953 25.5002 4.25024 24.381 4.25024 23.0002V11.7502C4.25024 10.3695 5.36953 9.25024 6.75024 9.25024H23.4777C24.4246 9.25024 25.2903 9.78525 25.7138 10.6322L27.7198 14.6443L31.7502 17.3313V23.0002C31.7502 24.381 30.631 25.5002 29.2502 25.5002ZM13.0001 24.2501C13.0001 24.9405 12.4405 25.5001 11.7501 25.5001C11.0598 25.5001 10.5001 24.9405 10.5001 24.2501C10.5001 23.5598 11.0598 23.0001 11.7501 23.0001C12.4405 23.0001 13.0001 23.5598 13.0001 24.2501ZM25.4995 24.2502C25.4995 24.9406 24.9399 25.5002 24.2495 25.5002C23.5592 25.5002 22.9995 24.9406 22.9995 24.2502C22.9995 23.5599 23.5592 23.0002 24.2495 23.0002C24.9399 23.0002 25.4995 23.5599 25.4995 24.2502Z" fill="#999999"/>
</svg>
