<svg width="24" height="24" viewBox="0 0 24 24" fill="none" xmlns="http://www.w3.org/2000/svg">
<path fill-rule="evenodd" clip-rule="evenodd" d="M15.6518 7.83341L17.1871 10.904L19.5002 12.4461V15.3334H18.5241C18.1809 14.3624 17.2548 13.6667 16.1663 13.6667C15.0778 13.6667 14.1518 14.3624 13.8086 15.3333H10.1908C9.84761 14.3624 8.92158 13.6667 7.83308 13.6667C6.74454 13.6667 5.81849 14.3624 5.47531 15.3334H4.50016V7.83341H15.6518ZM19.5002 17.0001H18.524C18.1808 17.971 17.2548 18.6667 16.1663 18.6667C15.0778 18.6667 14.1517 17.971 13.8085 17H10.1908C9.84764 17.971 8.9216 18.6667 7.83308 18.6667C6.74458 18.6667 5.81856 17.971 5.47535 17.0001H4.50016C3.57969 17.0001 2.8335 16.2539 2.8335 15.3334V7.83341C2.8335 6.91294 3.57969 6.16675 4.50016 6.16675H15.6518C16.2831 6.16675 16.8602 6.52342 17.1425 7.08806L18.4799 9.7628L21.1668 11.5541V15.3334C21.1668 16.2539 20.4206 17.0001 19.5002 17.0001ZM8.66676 16.1667C8.66676 16.6269 8.29366 17 7.83342 17C7.37319 17 7.00009 16.6269 7.00009 16.1667C7.00009 15.7064 7.37319 15.3333 7.83342 15.3333C8.29366 15.3333 8.66676 15.7064 8.66676 16.1667ZM16.9997 16.1668C16.9997 16.627 16.6266 17.0001 16.1664 17.0001C15.7061 17.0001 15.333 16.627 15.333 16.1668C15.333 15.7065 15.7061 15.3334 16.1664 15.3334C16.6266 15.3334 16.9997 15.7065 16.9997 16.1668Z" fill="#999999"/>
</svg>
