<svg width="36" height="36" viewBox="0 0 36 36" fill="none" xmlns="http://www.w3.org/2000/svg">
<path fill-rule="evenodd" clip-rule="evenodd" d="M8.44818 6.80583L9.03511 5.63197C9.45859 4.78501 10.3243 4.25 11.2712 4.25H24.7261C25.673 4.25 26.5387 4.78501 26.9622 5.63197L27.5491 6.80583C28.4656 7.00294 29.2134 7.7052 29.448 8.64366L30.073 11.1437C30.4079 12.4831 29.5935 13.8405 28.254 14.1754C28.1158 14.2099 27.975 14.2326 27.8332 14.2431L25.3322 31.7501H10.6639L8.16293 14.2431C6.8694 14.1476 5.84961 13.0679 5.84961 11.75C5.84961 11.5456 5.87468 11.342 5.92425 11.1437L6.54925 8.64366C6.78387 7.7052 7.53167 7.00294 8.44818 6.80583ZM25.3065 14.25L10.689 14.25L12.8319 29.25H23.1637L25.3065 14.25ZM8.97537 9.24989H10.0219L11.2719 6.74989H24.7269L25.9769 9.24989H27.0234L27.6484 11.7499H8.35037L8.97537 9.24989Z" fill="black"/>
</svg>
