<svg width="24" height="24" viewBox="0 0 24 24" fill="none" xmlns="http://www.w3.org/2000/svg">
<path fill-rule="evenodd" clip-rule="evenodd" d="M12.8333 17.8333V16.9409C14.4862 16.7045 15.9156 15.7751 16.8177 14.4565C19.0795 14.1449 20.3333 12.1857 20.3333 9.5V7C20.3333 6.07953 19.5871 5.33333 18.6666 5.33333H17.6103C17.3221 4.83517 16.7835 4.5 16.1666 4.5H7.83329C7.21639 4.5 6.67777 4.83517 6.3896 5.33333H5.33329C4.41282 5.33333 3.66663 6.07953 3.66663 7V9.5C3.66663 12.1857 4.92045 14.1449 7.18217 14.4565C8.08433 15.7751 9.51371 16.7045 11.1666 16.9409V17.8333H10.3333C9.41282 17.8333 8.66663 18.5795 8.66663 19.5H15.3333C15.3333 18.5795 14.5871 17.8333 13.6666 17.8333H12.8333ZM5.33329 7H6.16663V11.1667C6.16663 11.5481 6.20324 11.921 6.27315 12.2821C5.65852 11.7289 5.33329 10.7761 5.33329 9.5V7ZM17.8333 7V11.1667C17.8333 11.5481 17.7967 11.921 17.7268 12.2821C18.3414 11.7289 18.6666 10.776 18.6666 9.5V7H17.8333ZM7.83329 11.1667V6.16667H16.1666V11.1667C16.1666 13.4679 14.3011 15.3333 12 15.3333C9.69877 15.3333 7.83329 13.4679 7.83329 11.1667Z" fill="black"/>
</svg>
