<svg width="24" height="24" viewBox="0 0 24 24" fill="none" xmlns="http://www.w3.org/2000/svg">
<path fill-rule="evenodd" clip-rule="evenodd" d="M10.3326 4.5H13.6659C14.5864 4.5 15.3326 5.24619 15.3326 6.16667V7.00009H18.6661C19.5866 7.00009 20.3328 7.74629 20.3328 8.66676V17.8334C20.3328 18.7539 19.5866 19.5001 18.6661 19.5001H5.3328C4.41233 19.5001 3.66614 18.7539 3.66614 17.8334V8.66676C3.66614 7.74629 4.41233 7.00009 5.3328 7.00009H8.66589V6.16667C8.66589 5.24619 9.41208 4.5 10.3326 4.5ZM5.3324 17.8334V14.5001H11.1657V15.3334H12.8323V14.5001H18.6657V17.8334H5.3324ZM12.8323 12.8334H18.6657V8.66672H5.3324V12.8334H11.1657H12.8323ZM13.6665 6.16666V6.99999H10.3332V6.16666H13.6665Z" fill="#999999"/>
</svg>
