<svg width="24" height="24" viewBox="0 0 24 24" fill="none" xmlns="http://www.w3.org/2000/svg">
<path fill-rule="evenodd" clip-rule="evenodd" d="M4.49957 13.6668C4.49957 17.7478 7.63351 21.1666 11.9996 21.1666C16.3656 21.1666 19.4996 17.7478 19.4996 13.6668C19.4996 11.8334 18.8824 9.65741 17.7396 7.45012C16.1109 4.30418 14.6681 2.83325 12.4162 2.83325H11.5829C9.30889 2.83325 7.49124 4.66772 6.23773 7.49555C5.02654 10.2279 4.49957 11.9877 4.49957 13.6668ZM17.833 13.6668C17.833 16.8581 15.4113 19.4999 11.9996 19.4999C8.58797 19.4999 6.16629 16.8581 6.16629 13.6668C6.16629 12.2803 6.63765 10.7062 7.76146 8.17092C8.77639 5.88133 10.1452 4.49988 11.583 4.49988H12.4163C13.8346 4.49988 14.8955 5.58147 16.2596 8.21635C17.2878 10.2024 17.833 12.1244 17.833 13.6668ZM12 16.7916C10.159 16.7916 8.66664 15.2992 8.66664 13.4582C8.66664 11.5426 10.185 9.49989 12 9.49989C13.815 9.49989 15.3333 11.5426 15.3333 13.4582C15.3333 15.2992 13.8409 16.7916 12 16.7916ZM13.6661 13.4583C13.6661 14.3788 12.92 15.125 11.9995 15.125C11.079 15.125 10.3328 14.3788 10.3328 13.4583C10.3328 12.374 11.2303 11.1666 11.9995 11.1666C12.7687 11.1666 13.6661 12.374 13.6661 13.4583Z" fill="black"/>
</svg>
