<svg width="24" height="24" viewBox="0 0 24 24" fill="none" xmlns="http://www.w3.org/2000/svg">
<path fill-rule="evenodd" clip-rule="evenodd" d="M4.49963 13.6668C4.49963 17.7478 7.63357 21.1666 11.9996 21.1666C16.3657 21.1666 19.4996 17.7478 19.4996 13.6668C19.4996 11.8334 18.8824 9.65741 17.7397 7.45012C16.1109 4.30418 14.6682 2.83325 12.4163 2.83325H11.583C9.30896 2.83325 7.49131 4.66772 6.23779 7.49555C5.0266 10.2279 4.49963 11.9877 4.49963 13.6668ZM17.833 13.6668C17.833 16.8581 15.4113 19.4999 11.9997 19.4999C8.58803 19.4999 6.16635 16.8581 6.16635 13.6668C6.16635 12.2803 6.63771 10.7062 7.76152 8.17092C8.77645 5.88133 10.1452 4.49988 11.583 4.49988H12.4164C13.8346 4.49988 14.8955 5.58147 16.2597 8.21635C17.2879 10.2024 17.833 12.1244 17.833 13.6668ZM12 16.7916C10.1591 16.7916 8.6667 15.2992 8.6667 13.4582C8.6667 11.5426 10.185 9.49989 12 9.49989C13.815 9.49989 15.3334 11.5426 15.3334 13.4582C15.3334 15.2992 13.841 16.7916 12 16.7916ZM13.6662 13.4583C13.6662 14.3788 12.92 15.125 11.9995 15.125C11.0791 15.125 10.3329 14.3788 10.3329 13.4583C10.3329 12.374 11.2303 11.1666 11.9995 11.1666C12.7687 11.1666 13.6662 12.374 13.6662 13.4583Z" fill="#999999"/>
</svg>
