<svg width="26" height="26" viewBox="0 0 26 26" fill="none" xmlns="http://www.w3.org/2000/svg">
<path fill-rule="evenodd" clip-rule="evenodd" d="M4.8713 6.75C4.46104 6.07922 4.25 5.25357 4.25 4.25C4.25 2.27136 5.73794 0.5 8 0.5C10.265 0.5 12.0916 2.01703 13 4.39228C13.9084 2.01703 15.735 0.5 18 0.5C20.2621 0.5 21.75 2.27136 21.75 4.25C21.75 5.25357 21.539 6.07922 21.1287 6.75H23C24.3807 6.75 25.5 7.86929 25.5 9.25V11.75C25.5 13.1307 24.3807 14.25 23 14.25V23C23 24.3807 21.8807 25.5 20.5 25.5H5.5C4.11929 25.5 3 24.3807 3 23V14.25C1.61929 14.25 0.5 13.1307 0.5 11.75V9.25C0.5 7.86929 1.61929 6.75 3 6.75H4.8713ZM11.75 9.25H3V11.75H11.75V9.25ZM23 11.75H14.25V9.25H23V11.75ZM11.75 23V14.25H5.5V23H11.75ZM20.5 23H14.25V14.25H20.5V23ZM8 3C7.22456 3 6.75 3.56495 6.75 4.25C6.75 5.81654 8.02125 6.5614 11.0368 6.71811C10.7016 4.3895 9.45272 3 8 3ZM14.875 6.71811C15.2101 4.3895 16.4591 3 17.9118 3C18.6872 3 19.1618 3.56495 19.1618 4.25C19.1618 5.81654 17.8905 6.5614 14.875 6.71811Z" fill="black"/>
</svg>
