<svg width="24" height="24" viewBox="0 0 24 24" fill="none" xmlns="http://www.w3.org/2000/svg">
<path fill-rule="evenodd" clip-rule="evenodd" d="M19.5 18.6667V9.88747C20.4964 9.31113 21.1667 8.23389 21.1667 7.00008C21.1667 5.15913 19.6743 3.66675 17.8334 3.66675H6.16671C4.32576 3.66675 2.83337 5.15913 2.83337 7.00008C2.83337 8.23389 3.50371 9.31113 4.50004 9.88747V18.6667C4.50004 19.5872 5.24623 20.3334 6.16671 20.3334H17.8334C18.7538 20.3334 19.5 19.5872 19.5 18.6667ZM17.8333 18.6669H6.16668V8.92628L5.33456 8.44492C4.82129 8.14801 4.50002 7.60298 4.50002 7.0002C4.50002 6.07973 5.24621 5.33354 6.16668 5.33354H17.8333C18.7538 5.33354 19.5 6.07973 19.5 7.0002C19.5 7.60298 19.1787 8.14801 18.6655 8.44492L17.8333 8.92628V18.6669Z" fill="#999999"/>
</svg>
