<svg width="20" height="20" viewBox="0 0 20 20" fill="none" xmlns="http://www.w3.org/2000/svg">
<rect width="20" height="20" fill="white"/>
<path fill-rule="evenodd" clip-rule="evenodd" d="M16 15.3333V8.30983C16.797 7.84875 17.3333 6.98696 17.3333 5.99992C17.3333 4.52716 16.1394 3.33325 14.6666 3.33325H5.33329C3.86053 3.33325 2.66663 4.52716 2.66663 5.99992C2.66663 6.98696 3.20289 7.84875 3.99996 8.30983V15.3333C3.99996 16.0696 4.59691 16.6666 5.33329 16.6666H14.6666C15.403 16.6666 16 16.0696 16 15.3333ZM14.6667 15.3333H5.33333V7.54086L4.66763 7.15577C4.25702 6.91824 4 6.48222 4 6C4 5.26362 4.59695 4.66667 5.33333 4.66667H14.6667C15.403 4.66667 16 5.26362 16 6C16 6.48222 15.743 6.91824 15.3324 7.15577L14.6667 7.54086V15.3333Z" fill="black"/>
</svg>
