<svg width="36" height="36" viewBox="0 0 36 36" fill="none" xmlns="http://www.w3.org/2000/svg">
<path fill-rule="evenodd" clip-rule="evenodd" d="M29.25 28V14.8311C30.7445 13.9666 31.75 12.3507 31.75 10.5C31.75 7.73858 29.5114 5.5 26.75 5.5H9.25C6.48858 5.5 4.25 7.73858 4.25 10.5C4.25 12.3507 5.2555 13.9666 6.75 14.8311V28C6.75 29.3807 7.86929 30.5 9.25 30.5H26.75C28.1307 30.5 29.25 29.3807 29.25 28ZM26.75 28.0002H9.24996V13.3893L8.00178 12.6673C7.23187 12.2219 6.74996 11.4044 6.74996 10.5002C6.74996 9.11951 7.86925 8.00022 9.24996 8.00022H26.75C28.1307 8.00022 29.25 9.11951 29.25 10.5002C29.25 11.4044 28.7681 12.2219 27.9981 12.6673L26.75 13.3893V28.0002Z" fill="#999999"/>
</svg>
