<svg width="20" height="20" viewBox="0 0 20 20" fill="none" xmlns="http://www.w3.org/2000/svg">
<path fill-rule="evenodd" clip-rule="evenodd" d="M12.9583 3.3335C13.3948 3.3335 13.8132 3.50778 14.1188 3.81578L16.186 5.88304C16.4938 6.19083 16.6667 6.60828 16.6667 7.04355C16.6667 7.47882 16.4938 7.89627 16.186 8.20405L8.63838 15.7493C8.17272 16.2865 7.51264 16.6165 6.75644 16.6684H3.33337V16.0017L3.33554 13.1917C3.39233 12.4887 3.71915 11.8351 4.2177 11.3958L11.797 3.81658C12.1043 3.50738 12.5223 3.3335 12.9583 3.3335ZM6.70936 15.3367C7.06551 15.3115 7.39703 15.1457 7.66324 14.8412L12.7045 9.79997L10.2016 7.29696L5.13078 12.3666C4.86067 12.6054 4.69358 12.9397 4.66671 13.2454V15.3355L6.70936 15.3367ZM11.1445 6.35426L13.6473 8.85717L15.2432 7.26124C15.301 7.20351 15.3334 7.1252 15.3334 7.04355C15.3334 6.9619 15.301 6.88359 15.2432 6.82585L13.1741 4.75673C13.117 4.69919 13.0393 4.66683 12.9583 4.66683C12.8772 4.66683 12.7995 4.69919 12.7424 4.75673L11.1445 6.35426Z" fill="#999999"/>
</svg>
