<svg width="24" height="24" viewBox="0 0 24 24" fill="none" xmlns="http://www.w3.org/2000/svg">
<path fill-rule="evenodd" clip-rule="evenodd" d="M5.63216 4.53738L6.02345 3.75481C6.30577 3.19017 6.88287 2.8335 7.51416 2.8335H16.4841C17.1154 2.8335 17.6925 3.19017 17.9748 3.75481L18.3661 4.53738C18.9771 4.66879 19.4756 5.13697 19.6321 5.7626L20.0487 7.42927C20.272 8.32226 19.729 9.22715 18.836 9.4504C18.7439 9.47343 18.65 9.48853 18.5555 9.49557L16.8881 21.1669H7.10932L5.44199 9.49559C4.57964 9.43193 3.89978 8.71211 3.89978 7.8335C3.89978 7.69723 3.91649 7.56147 3.94954 7.42927L4.36621 5.7626C4.52262 5.13697 5.02115 4.66879 5.63216 4.53738ZM8.55463 19.5002L7.12606 9.5002H16.871L15.4425 19.5002H8.55463ZM5.98362 6.16677H6.68134L7.51467 4.50011H16.4846L17.3179 6.16677H18.0157L18.4323 7.83344H5.56696L5.98362 6.16677Z" fill="black"/>
</svg>
