<svg width="36" height="36" viewBox="0 0 36 36" fill="none" xmlns="http://www.w3.org/2000/svg">
<path fill-rule="evenodd" clip-rule="evenodd" d="M11.7495 12.9998V17.3746L6.74927 21.1248V27.9998L11.7495 27.9998C11.7495 29.3805 12.8688 30.4998 14.2495 30.4998H16.7495V31.7499H19.2495V30.4998H21.7495C23.1302 30.4998 24.2495 29.3805 24.2495 27.9998L29.25 27.9998V21.1248L24.2495 17.3744V12.9998C24.2495 9.05466 21.8575 4.24976 17.9995 4.24976C14.1414 4.24976 11.7495 9.05466 11.7495 12.9998ZM19.2495 27.9997H21.7496V12.9997C21.7496 10.2587 20.0027 6.74967 17.9996 6.74967C15.9964 6.74967 14.2496 10.2587 14.2496 12.9997V27.9997H16.7495V20.4999H19.2495V27.9997ZM9.24937 22.3748L11.7494 20.4998V25.4998H9.24937V22.3748ZM24.2502 25.4998V20.4998L26.7502 22.3748V25.4998H24.2502ZM17.9988 16.7499C16.6181 16.7499 15.4988 15.6306 15.4988 14.2499C15.4988 12.8692 16.6181 11.7499 17.9988 11.7499C19.3795 11.7499 20.4988 12.8692 20.4988 14.2499C20.4988 15.6306 19.3795 16.7499 17.9988 16.7499Z" fill="#999999"/>
</svg>
