<svg width="36" height="36" viewBox="0 0 36 36" fill="none" xmlns="http://www.w3.org/2000/svg">
<path fill-rule="evenodd" clip-rule="evenodd" d="M11.7496 12.9998V17.3746L6.74939 21.1248V27.9998L11.7496 27.9998C11.7496 29.3805 12.8689 30.4998 14.2496 30.4998H16.7497V31.7499H19.2497V30.4998H21.7496C23.1303 30.4998 24.2496 29.3805 24.2496 27.9998L29.2501 27.9998V21.1248L24.2496 17.3744V12.9998C24.2496 9.05466 21.8576 4.24976 17.9996 4.24976C14.1415 4.24976 11.7496 9.05466 11.7496 12.9998ZM19.2497 27.9997H21.7497V12.9997C21.7497 10.2587 20.0028 6.74967 17.9997 6.74967C15.9965 6.74967 14.2497 10.2587 14.2497 12.9997V27.9997H16.7497V20.4999H19.2497V27.9997ZM9.24949 22.3748L11.7495 20.4998V25.4998H9.24949V22.3748ZM24.2503 25.4998V20.4998L26.7503 22.3748V25.4998H24.2503ZM17.9989 16.7499C16.6182 16.7499 15.4989 15.6306 15.4989 14.2499C15.4989 12.8692 16.6182 11.7499 17.9989 11.7499C19.3796 11.7499 20.4989 12.8692 20.4989 14.2499C20.4989 15.6306 19.3796 16.7499 17.9989 16.7499Z" fill="black"/>
</svg>
