<svg width="24" height="24" viewBox="0 0 24 24" fill="none" xmlns="http://www.w3.org/2000/svg">
<path fill-rule="evenodd" clip-rule="evenodd" d="M7.833 8.66659V11.5831L4.49951 14.0833V18.6666L7.833 18.6666C7.833 19.5871 8.57919 20.3333 9.49967 20.3333H11.1663V21.1667H12.833V20.3333H14.4997C15.4201 20.3333 16.1663 19.5871 16.1663 18.6666L19.5 18.6666V14.0833L16.1663 11.583V8.66659C16.1663 6.03652 14.5717 2.83325 11.9997 2.83325C9.42763 2.83325 7.833 6.03652 7.833 8.66659ZM12.833 18.6665H14.4997V8.66655C14.4997 6.83925 13.3352 4.49988 11.9997 4.49988C10.6643 4.49988 9.49974 6.83925 9.49974 8.66655V18.6665H11.1663V13.6667H12.833V18.6665ZM6.16626 14.9166L7.83292 13.6666V16.9999H6.16626V14.9166ZM16.1668 16.9999V13.6666L17.8334 14.9166V16.9999H16.1668ZM11.9992 11.1667C11.0787 11.1667 10.3325 10.4205 10.3325 9.50003C10.3325 8.57955 11.0787 7.83336 11.9992 7.83336C12.9197 7.83336 13.6659 8.57955 13.6659 9.50003C13.6659 10.4205 12.9197 11.1667 11.9992 11.1667Z" fill="#999999"/>
</svg>
