<svg width="24" height="24" viewBox="0 0 24 24" fill="none" xmlns="http://www.w3.org/2000/svg">
<path fill-rule="evenodd" clip-rule="evenodd" d="M7.83312 8.66659V11.5831L4.49963 14.0833V18.6666L7.83312 18.6666C7.83312 19.5871 8.57931 20.3333 9.49979 20.3333H11.1665V21.1667H12.8331V20.3333H14.4998C15.4203 20.3333 16.1665 19.5871 16.1665 18.6666L19.5001 18.6666V14.0833L16.1665 11.583V8.66659C16.1665 6.03652 14.5718 2.83325 11.9998 2.83325C9.42775 2.83325 7.83312 6.03652 7.83312 8.66659ZM12.8331 18.6665H14.4999V8.66655C14.4999 6.83925 13.3353 4.49988 11.9999 4.49988C10.6644 4.49988 9.49986 6.83925 9.49986 8.66655V18.6665H11.1665V13.6667H12.8331V18.6665ZM6.16638 14.9166L7.83304 13.6666V16.9999H6.16638V14.9166ZM16.1669 16.9999V13.6666L17.8336 14.9166V16.9999H16.1669ZM11.9993 11.1667C11.0789 11.1667 10.3327 10.4205 10.3327 9.50003C10.3327 8.57955 11.0789 7.83336 11.9993 7.83336C12.9198 7.83336 13.666 8.57955 13.666 9.50003C13.666 10.4205 12.9198 11.1667 11.9993 11.1667Z" fill="black"/>
</svg>
