<svg width="30" height="30" viewBox="0 0 30 30" fill="none" xmlns="http://www.w3.org/2000/svg">
<path d="M16.896 16.218C16.896 16.518 16.821 16.8 16.671 17.064C16.527 17.328 16.311 17.55 16.023 17.73C15.741 17.91 15.405 18.018 15.015 18.054V18.783H14.43V18.054C13.866 18 13.41 17.823 13.062 17.523C12.714 17.223 12.54 16.827 12.54 16.335H13.638C13.656 16.569 13.731 16.764 13.863 16.92C13.995 17.07 14.184 17.166 14.43 17.208V15.228C14.028 15.126 13.701 15.024 13.449 14.922C13.197 14.814 12.981 14.646 12.801 14.418C12.627 14.19 12.54 13.878 12.54 13.482C12.54 12.984 12.714 12.573 13.062 12.249C13.41 11.919 13.866 11.727 14.43 11.673V10.944H15.015V11.673C15.543 11.721 15.966 11.889 16.284 12.177C16.608 12.459 16.791 12.849 16.833 13.347H15.735C15.717 13.161 15.645 12.996 15.519 12.852C15.393 12.702 15.225 12.6 15.015 12.546V14.49C15.417 14.586 15.744 14.688 15.996 14.796C16.248 14.898 16.461 15.063 16.635 15.291C16.809 15.513 16.896 15.822 16.896 16.218ZM13.584 13.428C13.584 13.674 13.656 13.866 13.8 14.004C13.95 14.142 14.16 14.253 14.43 14.337V12.519C14.172 12.549 13.965 12.642 13.809 12.798C13.659 12.954 13.584 13.164 13.584 13.428ZM15.015 17.208C15.279 17.166 15.486 17.061 15.636 16.893C15.786 16.719 15.861 16.512 15.861 16.272C15.861 16.032 15.786 15.846 15.636 15.714C15.492 15.576 15.285 15.465 15.015 15.381V17.208Z" fill="black"/>
<path fill-rule="evenodd" clip-rule="evenodd" d="M17.8661 3.38398L20.7335 6.25134H10C6.54822 6.25134 3.75 9.04956 3.75 12.5013V16.2513H6.25V12.5013C6.25 10.4303 7.92893 8.75134 10 8.75134H20.731L17.8661 11.6162L19.6339 13.384L25.5178 7.50009L19.6339 1.61621L17.8661 3.38398ZM12.1339 26.6161L9.2678 23.75H20C23.4518 23.75 26.25 20.9518 26.25 17.5V13.75H23.75V17.5C23.75 19.5711 22.0711 21.25 20 21.25H9.2678L12.1339 18.3839L10.3662 16.6161L4.48227 22.5L10.3662 28.3839L12.1339 26.6161Z" fill="black"/>
</svg>
