<svg width="24" height="24" viewBox="0 0 24 24" fill="none" xmlns="http://www.w3.org/2000/svg">
<path fill-rule="evenodd" clip-rule="evenodd" d="M12 21.1666C6.93743 21.1666 2.83337 17.0625 2.83337 11.9999C2.83337 6.93731 6.93743 2.83325 12 2.83325C17.0626 2.83325 21.1667 6.93731 21.1667 11.9999C21.1667 17.0625 17.0626 21.1666 12 21.1666ZM18.1663 16.2705C19.0072 15.0585 19.5 13.5868 19.5 11.9999C19.5 7.85778 16.1422 4.49992 12 4.49992C7.8579 4.49992 4.50004 7.85778 4.50004 11.9999C4.50004 13.5868 4.99286 15.0585 5.83379 16.2705C6.77167 15.0316 8.97554 14.4999 12 14.4999C15.0245 14.4999 17.2284 15.0316 18.1663 16.2705ZM16.9706 17.6164C16.7267 16.7394 14.9745 16.1666 12 16.1666C9.02556 16.1666 7.27338 16.7394 7.02947 17.6164C8.35279 18.7884 10.0933 19.4999 12 19.4999C13.9068 19.4999 15.6473 18.7884 16.9706 17.6164ZM12 6.99992C9.98262 6.99992 8.66671 8.46305 8.66671 10.3333C8.66671 13.1894 10.1341 14.4999 12 14.4999C13.8484 14.4999 15.3334 13.2329 15.3334 10.4999C15.3334 8.60123 14.0119 6.99992 12 6.99992ZM10.3334 10.3333C10.3334 12.2243 11.0152 12.8333 12 12.8333C12.9815 12.8333 13.6667 12.2486 13.6667 10.4999C13.6667 9.4586 13.0131 8.66659 12 8.66659C10.9448 8.66659 10.3334 9.34644 10.3334 10.3333Z" fill="black"/>
</svg>
